# xmcd
#
# Track frame offsets:
#	150
#	16126
#	34197
#	51190
#	66675
#	84948
#	103275
#	117132
#	133511
#	150548
#	169926
#	186015
#	199949
#	215760
#	235891
#
# Disc length: 3298 seconds
#
# Revision: 0
# Processed by: cddbd v1.5.1PL2 Copyright (c) Steve Scherf et al.
# Submitted via: EasyCDDAExtractor 9.0.2.1
#
DISCID=d40ce00f
DTITLE=Pala Velho - Cara A Cara
DYEAR=2006
DGENRE=Gaucho
TTITLE0=Cara A Cara
TTITLE1=Ela Chora
TTITLE2=Pior E Te Perder
TTITLE3=Saudade
TTITLE4=Namorada
TTITLE5=Liga Pra Mim
TTITLE6=Por Nada
TTITLE7=Fandangueiro
TTITLE8=Um Homem Tambem Chora
TTITLE9=Vem Ca Guria
TTITLE10=Te Namorar
TTITLE11=Menina Cheirosa
TTITLE12=Coracao Cigano
TTITLE13=Rede Na Varanda
TTITLE14=Se Voce Quiser
EXTD=
EXTT0=
EXTT1=
EXTT2=
EXTT3=
EXTT4=
EXTT5=
EXTT6=
EXTT7=
EXTT8=
EXTT9=
EXTT10=
EXTT11=
EXTT12=
EXTT13=
EXTT14=
PLAYORDER=
